<mxfile host="app.diagrams.net" modified="2024-06-14T09:20:28.665Z" agent="Mozilla/5.0 (X11; Linux x86_64) AppleWebKit/537.36 (KHTML, like Gecko) Chrome/125.0.0.0 Safari/537.36" etag="LtA7HKCcrhgiWwzVi7S4" version="24.5.4" type="github">
  <diagram name="Page-1" id="86ZV9bKICtZ7iEokGO9m">
    <mxGraphModel dx="617" dy="764" grid="1" gridSize="10" guides="1" tooltips="1" connect="1" arrows="1" fold="1" page="1" pageScale="1" pageWidth="827" pageHeight="1169" math="0" shadow="0">
      <root>
        <mxCell id="0" />
        <mxCell id="1" parent="0" />
        <mxCell id="ywc5r-KJqO2QLi32E5B2-7" value="" style="whiteSpace=wrap;html=1;" vertex="1" parent="1">
          <mxGeometry x="340" y="330" width="550" height="530" as="geometry" />
        </mxCell>
        <mxCell id="ywc5r-KJqO2QLi32E5B2-1" value="&lt;div&gt;int scope_level;&lt;/div&gt;&lt;div&gt;int scope_first;&lt;/div&gt;&lt;div&gt;int scope_size;&lt;/div&gt;&lt;div&gt;int scope_count;&lt;/div&gt;&lt;div&gt;JSVarScope *scopes;&lt;/div&gt;&lt;div&gt;JSVarScope def_scope_array[4];&lt;/div&gt;&lt;div&gt;int body_scope;&lt;/div&gt;" style="whiteSpace=wrap;html=1;align=left;" vertex="1" parent="1">
          <mxGeometry x="410" y="700" width="200" height="120" as="geometry" />
        </mxCell>
        <mxCell id="ywc5r-KJqO2QLi32E5B2-4" value="typedef struct JSVarScope{&lt;div&gt;&lt;span style=&quot;white-space: pre;&quot;&gt;&#x9;&lt;/span&gt;int parent;&lt;br&gt;&lt;/div&gt;&lt;div&gt;&lt;span style=&quot;white-space: pre;&quot;&gt;&#x9;&lt;/span&gt;int first;&lt;br&gt;&lt;/div&gt;&lt;div&gt;}&lt;/div&gt;" style="whiteSpace=wrap;html=1;align=left;" vertex="1" parent="1">
          <mxGeometry x="40" y="770" width="190" height="70" as="geometry" />
        </mxCell>
        <mxCell id="ywc5r-KJqO2QLi32E5B2-6" style="edgeStyle=orthogonalEdgeStyle;rounded=0;orthogonalLoop=1;jettySize=auto;html=1;entryX=0.006;entryY=0.578;entryDx=0;entryDy=0;entryPerimeter=0;" edge="1" parent="1" source="ywc5r-KJqO2QLi32E5B2-4" target="ywc5r-KJqO2QLi32E5B2-1">
          <mxGeometry relative="1" as="geometry" />
        </mxCell>
        <mxCell id="ywc5r-KJqO2QLi32E5B2-8" value="JSVarDef *vars;&lt;div&gt;int var_size;&lt;/div&gt;&lt;div&gt;int var_count;&lt;/div&gt;" style="whiteSpace=wrap;html=1;align=left;" vertex="1" parent="1">
          <mxGeometry x="410" y="460" width="120" height="60" as="geometry" />
        </mxCell>
      </root>
    </mxGraphModel>
  </diagram>
</mxfile>
